<svg id="图层_1" data-name="图层 1" xmlns="http://www.w3.org/2000/svg" viewBox="0 0 226.01 261.93"><defs><style>.cls-1{fill:none;stroke-width:10px;}.cls-1,.cls-2{stroke:#231815;stroke-miterlimit:10;}.cls-2{fill:#040000;}.cls-3{fill:#231815;}</style></defs><title>trash</title><path class="cls-1" d="M165.33,356.21v-7.85a12.26,12.26,0,0,1,12.26-12.26h57.76a12.26,12.26,0,0,1,12.26,12.26v7.85" transform="translate(-93.99 -331.1)"/><path class="cls-2" d="M319.5,384.13v-6.06a21.86,21.86,0,0,0-21.86-21.86H116.34a21.86,21.86,0,0,0-21.85,21.86v6.06Z" transform="translate(-93.99 -331.1)"/><path class="cls-3" d="M306.63,396H109.2a6.3,6.3,0,0,0-6.21,7.37l30.14,174.36A18.43,18.43,0,0,0,151.29,593H265.72a18.44,18.44,0,0,0,18.18-15.41l29-174.28A6.3,6.3,0,0,0,306.63,396ZM173,557c-5.31.51-8.11-2.7-8.72-7.18L149.58,441.1c-.61-4.48,1.21-8.52,6.52-9s8.12,2.7,8.72,7.18l14.75,108.69C180.17,552.41,178.36,556.46,173,557Zm39.51-7.75c0,4.5-1.66,8.16-6.17,8.16h-3c-4.5,0-6.16-3.66-6.16-8.16V439.82c0-4.51,1.66-8.16,6.16-8.16h3c4.51,0,6.17,3.65,6.17,8.16Zm46.5-108.47-13.44,109c-.56,4.49-3.32,7.8-8.64,7.4h0c-5.32-.4-7.18-4.37-6.63-8.86l13.45-109c.55-4.49,3.32-7.8,8.63-7.4h0C257.74,432.29,259.61,436.26,259.05,440.75Z" transform="translate(-93.99 -331.1)"/></svg>